<svg width="1440" height="766" viewBox="0 0 1440 766" fill="none" xmlns="http://www.w3.org/2000/svg">
<mask id="mask0_780_5926" style="mask-type:alpha" maskUnits="userSpaceOnUse" x="0" y="0" width="1440" height="766">
<rect width="1440" height="766" fill="#03142D"/>
</mask>
<g mask="url(#mask0_780_5926)">
<g opacity="0.72">
<path opacity="0.010101" d="M622.571 193.966L1035.3 -582.263C1047.35 -604.927 1072.62 -617.254 1097.9 -612.797L1963.68 -460.137C1988.96 -455.679 2008.49 -435.451 2012.07 -410.033L2134.42 460.546C2137.99 485.964 2124.79 510.793 2101.72 522.045L1311.56 907.432C1288.49 918.684 1260.79 913.801 1242.96 895.337L632.265 262.941C614.434 244.476 610.52 216.63 622.571 193.966Z" stroke="url(#paint0_linear_780_5926)" stroke-width="1.5"/>
<path opacity="0.020202" d="M613.851 182.933L1039.21 -584.433C1051.65 -606.883 1077.14 -618.767 1102.34 -613.869L1963.59 -446.459C1988.78 -441.561 2007.96 -420.996 2011.09 -395.519L2118.01 475.312C2121.14 500.79 2107.51 525.384 2084.25 536.232L1289.08 907.025C1265.81 917.873 1238.21 912.507 1220.7 893.734L622.339 252.066C604.833 233.293 601.407 205.383 613.851 182.933Z" stroke="url(#paint1_linear_780_5926)" stroke-width="1.5"/>
<path opacity="0.030303" d="M605.378 171.933L1043.18 -586.365C1056.02 -608.594 1081.7 -620.032 1106.81 -614.695L1963.29 -432.646C1988.39 -427.309 2007.21 -406.412 2009.89 -380.884L2101.42 489.927C2104.1 515.455 2090.04 539.807 2066.59 550.247L1266.68 906.389C1243.24 916.829 1215.73 910.983 1198.55 891.907L612.659 241.204C595.483 222.129 592.544 194.163 605.378 171.933Z" stroke="url(#paint2_linear_780_5926)" stroke-width="1.5"/>
<path opacity="0.040404" d="M597.15 160.974L1047.21 -588.057C1060.43 -610.059 1086.32 -621.046 1111.33 -615.272L1962.78 -418.7C1987.79 -412.926 2006.23 -391.703 2008.47 -366.132L2084.63 504.386C2086.87 529.957 2072.39 554.06 2048.76 564.09L1244.38 905.528C1220.75 915.558 1193.35 909.232 1176.51 889.86L603.22 230.361C586.38 210.989 583.929 182.976 597.15 160.974Z" stroke="url(#paint3_linear_780_5926)" stroke-width="1.5"/>
<path opacity="0.050505" d="M589.169 150.055L1051.3 -589.511C1064.9 -611.279 1090.98 -621.813 1115.88 -615.603L1962.06 -404.628C1986.96 -398.418 2005.04 -376.877 2006.83 -351.271L2067.66 518.685C2069.45 544.291 2054.55 568.138 2030.75 577.754L1222.17 904.441C1198.37 914.057 1171.09 907.254 1154.59 887.591L594.028 219.538C577.528 199.875 575.566 171.824 589.169 150.055Z" stroke="url(#paint4_linear_780_5926)" stroke-width="1.5"/>
<path opacity="0.0606061" d="M581.431 139.18L1055.44 -590.73C1069.42 -612.257 1095.67 -622.334 1120.47 -615.691L1961.13 -390.436C1985.92 -383.793 2003.62 -361.939 2004.96 -336.306L2050.51 532.818C2051.85 558.452 2036.54 582.035 2012.57 591.234L1200.06 903.128C1176.1 912.327 1148.94 905.049 1132.78 885.1L585.076 208.737C568.923 188.789 567.451 160.707 581.431 139.18Z" stroke="url(#paint5_linear_780_5926)" stroke-width="1.5"/>
<path opacity="0.0707071" d="M573.94 128.355L1059.63 -591.709C1073.98 -612.989 1100.41 -622.607 1125.08 -615.531L1959.99 -376.126C1984.66 -369.05 2001.97 -346.892 2002.87 -321.239L2033.18 546.786C2034.08 572.439 2018.35 595.751 1994.23 604.531L1178.06 901.593C1153.94 910.373 1126.91 902.622 1111.11 882.395L576.37 197.965C560.567 177.738 559.586 149.635 573.94 128.355Z" stroke="url(#paint6_linear_780_5926)" stroke-width="1.5"/>
<path opacity="0.0808081" d="M566.686 117.588L1063.86 -592.445C1078.58 -613.472 1105.17 -622.627 1129.71 -615.122L1958.63 -361.697C1983.18 -354.192 2000.1 -331.735 2000.55 -306.07L2015.68 560.589C2016.12 586.253 1999.99 609.288 1975.72 617.645L1156.16 899.844C1131.89 908.201 1105 899.979 1089.55 879.48L567.901 187.23C552.454 166.73 551.963 138.615 566.686 117.588Z" stroke="url(#paint7_linear_780_5926)" stroke-width="1.5"/>
<path opacity="0.0909091" d="M559.675 106.878L1068.13 -592.944C1083.21 -613.71 1109.96 -622.4 1134.37 -614.468L1957.06 -347.16C1981.47 -339.227 1998 -316.478 1998 -290.809V574.218C1998 599.886 1981.47 622.636 1957.06 630.568L1134.37 897.876C1109.96 905.808 1083.21 897.118 1068.13 876.352L559.675 176.53C544.587 155.764 544.587 127.644 559.675 106.878Z" stroke="url(#paint8_linear_780_5926)" stroke-width="1.5"/>
<path opacity="0.10101" d="M552.901 96.2287L1072.43 -593.204C1087.87 -613.704 1114.76 -621.926 1139.04 -613.569L1955.27 -332.518C1979.54 -324.161 1995.67 -301.126 1995.22 -275.462L1980.15 587.671C1979.7 613.335 1962.78 635.793 1938.23 643.298L1112.69 895.691C1088.14 903.196 1061.56 894.041 1046.83 873.015L551.685 165.871C536.962 144.844 537.453 116.729 552.901 96.2287Z" stroke="url(#paint9_linear_780_5926)" stroke-width="1.5"/>
<path opacity="0.111111" d="M546.367 85.6507L1076.76 -593.221C1092.56 -613.448 1119.59 -621.199 1143.71 -612.42L1953.26 -317.769C1977.38 -308.99 1993.1 -285.678 1992.21 -260.025L1962.14 600.951C1961.25 626.604 1943.93 648.763 1919.26 655.838L1091.13 893.3C1066.46 900.375 1040.03 890.757 1025.68 869.477L543.936 155.261C529.582 133.981 530.563 105.878 546.367 85.6507Z" stroke="url(#paint10_linear_780_5926)" stroke-width="1.5"/>
<path opacity="0.121212" d="M540.066 75.1395L1081.12 -593.001C1097.27 -612.95 1124.43 -620.228 1148.39 -611.029L1951.03 -302.927C1974.99 -293.728 1990.31 -270.145 1988.96 -244.511L1943.97 614.047C1942.63 639.681 1924.93 661.534 1900.13 668.178L1069.69 890.694C1044.9 897.337 1018.65 887.26 1004.67 865.733L536.42 144.697C522.44 123.169 523.912 95.0879 540.066 75.1395Z" stroke="url(#paint11_linear_780_5926)" stroke-width="1.5"/>
<path opacity="0.131313" d="M534 64.7079L1085.49 -592.538C1101.99 -612.201 1129.28 -619.004 1153.08 -609.389L1948.58 -287.986C1972.38 -278.37 1987.28 -254.523 1985.49 -228.917L1925.64 626.966C1923.85 652.572 1905.77 674.114 1880.87 680.323L1048.38 887.886C1023.47 894.096 997.4 883.562 983.798 861.794L529.141 134.191C515.539 112.423 517.5 84.3712 534 64.7079Z" stroke="url(#paint12_linear_780_5926)" stroke-width="1.5"/>
<path opacity="0.141414" d="M528.164 54.3541L1089.89 -591.836C1106.73 -611.208 1134.13 -617.534 1157.76 -607.505L1945.9 -272.956C1969.53 -262.927 1984.01 -238.823 1981.78 -213.253L1907.15 639.7C1904.91 665.271 1886.47 686.493 1861.46 692.267L1027.19 884.872C1002.18 890.647 976.295 879.659 963.075 857.657L522.094 123.742C508.873 101.739 511.324 73.7265 528.164 54.3541Z" stroke="url(#paint13_linear_780_5926)" stroke-width="1.5"/>
<path opacity="0.151515" d="M522.559 44.0821L1094.3 -590.896C1111.47 -609.971 1138.98 -615.818 1162.43 -605.377L1943 -257.842C1966.45 -247.402 1980.51 -223.049 1977.83 -197.521L1888.51 652.245C1885.83 677.773 1867.02 698.67 1841.91 704.007L1006.13 881.656C981.025 886.993 955.336 875.556 942.502 853.326L515.279 113.353C502.444 91.1234 505.384 63.1577 522.559 44.0821Z" stroke="url(#paint14_linear_780_5926)" stroke-width="1.5"/>
<path opacity="0.161616" d="M517.184 33.8988L1098.71 -589.714C1116.22 -608.487 1143.82 -613.853 1167.09 -603.005L1939.88 -242.645C1963.14 -231.797 1976.78 -207.203 1973.65 -181.726L1869.73 664.602C1866.6 690.08 1847.43 710.645 1822.23 715.543L985.211 878.242C960.014 883.14 934.529 871.256 922.084 848.806L508.695 103.032C496.251 80.5819 499.678 52.6717 517.184 33.8988Z" stroke="url(#paint15_linear_780_5926)" stroke-width="1.5"/>
<path opacity="0.171717" d="M512.032 23.8081L1103.13 -588.293C1120.96 -606.757 1148.65 -611.64 1171.73 -600.388L1936.53 -227.369C1959.6 -216.116 1972.8 -191.288 1969.23 -165.869L1850.8 676.77C1847.23 702.189 1827.7 722.416 1802.42 726.874L964.424 874.634C939.146 879.092 913.872 866.765 901.821 844.101L502.338 92.7827C490.287 70.1187 494.201 42.2726 512.032 23.8081Z" stroke="url(#paint16_linear_780_5926)" stroke-width="1.5"/>
<path opacity="0.181818" d="M507.107 13.8108L1107.55 -586.634C1125.7 -604.784 1153.48 -609.183 1176.35 -597.53L1932.95 -212.021C1955.82 -200.367 1968.59 -175.312 1964.57 -149.96L1831.74 688.742C1827.72 714.095 1807.84 733.979 1782.48 737.994L943.781 870.832C918.429 874.847 893.374 862.081 881.72 839.21L496.211 82.6058C484.558 59.7348 488.957 31.9613 507.107 13.8108Z" stroke="url(#paint17_linear_780_5926)" stroke-width="1.5"/>
<path opacity="0.191919" d="M502.402 3.91349L1111.97 -584.735C1130.43 -602.566 1158.28 -606.48 1180.94 -594.429L1929.14 -196.602C1951.81 -184.551 1964.14 -159.277 1959.68 -133.999L1812.53 700.521C1808.07 725.8 1787.84 745.333 1762.43 748.906L923.279 866.84C897.86 870.412 873.032 857.211 861.78 834.14L490.307 72.5079C479.054 49.4371 483.937 21.7445 502.402 3.91349Z" stroke="url(#paint18_linear_780_5926)" stroke-width="1.5"/>
<path opacity="0.20202" d="M497.917 -5.88596L1116.37 -582.604C1135.14 -600.11 1163.06 -603.537 1185.51 -591.093L1925.11 -181.123C1947.56 -168.679 1959.44 -143.194 1954.55 -117.997L1793.19 712.097C1788.29 737.294 1767.73 756.472 1742.25 759.6L902.925 862.656C877.448 865.785 852.854 852.152 842.006 828.888L484.627 62.4869C473.779 39.2232 479.144 11.6201 497.917 -5.88596Z" stroke="url(#paint19_linear_780_5926)" stroke-width="1.5"/>
<path opacity="0.212121" d="M493.649 -15.5723L1120.76 -580.229C1139.84 -597.405 1167.81 -600.344 1190.04 -587.51L1920.85 -165.577C1943.08 -152.742 1954.51 -127.054 1949.18 -101.946L1773.73 723.48C1768.39 748.588 1747.49 767.404 1721.96 770.087L882.72 858.295C857.192 860.978 832.84 846.918 822.399 823.469L479.168 52.5582C468.727 29.1087 474.574 1.60345 493.649 -15.5723Z" stroke="url(#paint20_linear_780_5926)" stroke-width="1.5"/>
<path opacity="0.222222" d="M489.596 -25.1537L1125.14 -577.623C1144.51 -594.463 1172.53 -596.914 1194.53 -583.694L1916.35 -149.979C1938.35 -136.758 1949.34 -110.874 1943.57 -85.863L1754.13 734.657C1748.36 759.668 1727.14 778.116 1701.57 780.354L862.668 853.748C837.097 855.985 812.994 841.502 802.964 817.874L473.928 42.7137C463.898 19.0856 470.224 -8.31347 489.596 -25.1537Z" stroke="url(#paint21_linear_780_5926)" stroke-width="1.5"/>
<path opacity="0.232323" d="M485.756 -34.618L1129.49 -574.778C1149.16 -591.278 1177.21 -593.239 1198.98 -579.637L1911.63 -134.324C1933.39 -120.722 1943.93 -94.6499 1937.72 -69.7437L1734.42 745.635C1728.21 770.541 1706.67 788.616 1681.06 790.406L842.771 849.026C817.165 850.816 793.318 835.915 783.703 812.115L468.906 32.9656C459.29 9.16604 466.093 -18.1184 485.756 -34.618Z" stroke="url(#paint22_linear_780_5926)" stroke-width="1.5"/>
<path opacity="0.242424" d="M482.129 -43.9647L1133.83 -571.698C1153.77 -587.852 1181.85 -589.324 1203.38 -575.344L1906.67 -118.622C1928.2 -104.642 1938.28 -78.3895 1931.63 -53.5956L1714.59 756.407C1707.95 781.201 1686.1 798.898 1660.46 800.241L823.036 844.129C797.402 845.472 773.819 830.157 764.62 806.193L464.101 23.3144C454.903 -0.649293 462.18 -27.8109 482.129 -43.9647Z" stroke="url(#paint23_linear_780_5926)" stroke-width="1.5"/>
<path opacity="0.252525" d="M478.706 -53.1935L1138.12 -568.387C1158.35 -584.19 1186.45 -585.172 1207.73 -570.818L1901.48 -102.878C1922.76 -88.5242 1932.38 -62.1003 1925.31 -37.426L1694.65 766.971C1687.57 791.645 1665.42 808.957 1639.76 809.853L803.459 839.057C777.806 839.953 754.494 824.229 745.714 800.108L459.507 13.7608C450.728 -10.3598 458.479 -37.3902 478.706 -53.1935Z" stroke="url(#paint24_linear_780_5926)" stroke-width="1.5"/>
<path opacity="0.262626" d="M475.489 -62.2982L1142.39 -564.844C1162.89 -580.292 1191 -580.782 1212.03 -566.059L1896.06 -87.0945C1917.09 -72.3715 1926.25 -45.7837 1918.74 -21.2367L1674.6 777.326C1667.09 801.873 1644.63 818.796 1618.97 819.244L784.046 833.817C758.382 834.265 735.347 818.136 726.99 793.866L455.125 4.3109C446.768 -19.9593 454.989 -46.8504 475.489 -62.2982Z" stroke="url(#paint25_linear_780_5926)" stroke-width="1.5"/>
<path opacity="0.272727" d="M472.475 -71.2717L1146.62 -561.065C1167.38 -576.153 1195.5 -576.153 1216.27 -561.065L1890.41 -71.2717C1911.18 -56.1839 1919.87 -29.4404 1911.94 -5.02818L1654.44 787.475C1646.51 811.887 1623.76 828.415 1598.09 828.415L764.801 828.415C739.132 828.415 716.383 811.887 708.451 787.474L450.951 -5.02823C443.019 -29.4406 451.709 -56.184 472.475 -71.2717Z" stroke="url(#paint26_linear_780_5926)" stroke-width="1.5"/>
<path opacity="0.282828" d="M469.66 -80.1158L1150.8 -557.058C1171.83 -571.781 1199.95 -571.29 1220.45 -555.842L1884.53 -55.4191C1905.03 -39.9713 1913.25 -13.0802 1904.89 11.1899L1634.18 797.411C1625.82 821.681 1602.79 837.81 1577.12 837.362L745.725 822.85C720.06 822.402 697.602 805.479 690.098 780.932L446.984 -14.258C439.479 -38.8051 448.634 -65.3928 469.66 -80.1158Z" stroke="url(#paint27_linear_780_5926)" stroke-width="1.5"/>
<path opacity="0.292929" d="M467.044 -88.8235L1154.95 -552.819C1176.23 -567.173 1204.33 -566.192 1224.56 -550.389L1878.42 -39.5373C1898.64 -23.7341 1906.39 3.29639 1897.61 27.417L1613.82 807.136C1605.04 831.257 1581.73 846.981 1556.08 846.085L726.821 817.127C701.168 816.231 679.009 798.919 671.934 774.245L443.221 -23.3716C436.146 -48.0458 445.764 -74.4698 467.044 -88.8235Z" stroke="url(#paint28_linear_780_5926)" stroke-width="1.5"/>
<path opacity="0.30303" d="M464.62 -97.3978L1159.04 -548.357C1180.56 -562.337 1208.65 -560.865 1228.59 -544.712L1872.07 -23.6366C1892.02 -7.48267 1899.29 19.6789 1890.09 43.6426L1593.37 816.644C1584.17 840.608 1560.59 855.923 1534.95 854.58L708.09 811.246C682.457 809.902 660.603 792.206 653.96 767.412L439.659 -32.3716C433.015 -57.1656 443.092 -83.4176 464.62 -97.3978Z" stroke="url(#paint29_linear_780_5926)" stroke-width="1.5"/>
<path opacity="0.313131" d="M462.388 -105.827L1163.07 -543.664C1184.84 -557.266 1212.89 -555.304 1232.56 -538.805L1865.49 -7.71249C1885.15 8.78708 1891.95 36.0716 1882.34 59.8711L1572.83 825.941C1563.21 849.741 1539.36 864.642 1513.76 862.851L689.537 805.216C663.931 803.426 642.39 785.351 636.18 760.444L436.296 -41.2461C430.086 -66.1523 440.62 -92.2245 462.388 -105.827Z" stroke="url(#paint30_linear_780_5926)" stroke-width="1.5"/>
<path opacity="0.323232" d="M460.346 -114.117L1167.05 -538.75C1189.06 -551.97 1217.07 -549.519 1236.44 -532.679L1858.68 8.22164C1878.05 25.0619 1884.38 52.461 1874.35 76.089L1552.2 835.017C1542.17 858.646 1518.07 873.128 1492.5 870.891L671.164 799.034C645.593 796.797 624.371 778.348 618.596 753.338L433.131 -50.001C427.357 -75.0118 438.344 -100.896 460.346 -114.117Z" stroke="url(#paint31_linear_780_5926)" stroke-width="1.5"/>
<path opacity="0.333333" d="M458.488 -122.255L1170.97 -533.608C1193.2 -546.443 1221.17 -543.503 1240.24 -526.328L1851.63 24.1702C1870.71 41.3459 1876.56 68.8512 1866.12 92.3007L1531.49 843.88C1521.05 867.33 1496.7 881.39 1471.17 878.707L652.97 792.71C627.442 790.027 606.545 771.212 601.208 746.104L430.158 -58.6245C424.821 -83.7323 436.259 -109.421 458.488 -122.255Z" stroke="url(#paint32_linear_780_5926)" stroke-width="1.5"/>
<path opacity="0.343434" d="M456.813 -130.246L1174.83 -528.248C1197.28 -540.692 1225.19 -537.265 1243.96 -519.759L1844.36 40.1228C1863.13 57.6289 1868.5 85.232 1857.65 108.496L1510.7 852.523C1499.86 875.787 1475.26 889.419 1449.78 886.291L634.96 786.243C609.483 783.115 588.917 763.937 584.02 738.74L427.376 -67.1198C422.478 -92.3168 434.362 -117.802 456.813 -130.246Z" stroke="url(#paint33_linear_780_5926)" stroke-width="1.5"/>
<path opacity="0.353535" d="M455.316 -138.081L1178.61 -522.663C1201.27 -534.713 1229.12 -530.8 1247.58 -512.969L1836.85 56.0812C1855.32 73.9122 1860.2 101.605 1848.95 124.676L1489.84 860.949C1478.59 884.02 1453.76 897.222 1428.34 893.649L617.136 779.642C591.717 776.069 571.489 756.536 567.032 731.257L424.783 -75.4778C420.325 -100.757 432.652 -126.03 455.316 -138.081Z" stroke="url(#paint34_linear_780_5926)" stroke-width="1.5"/>
<path opacity="0.363636" d="M453.996 -145.763L1182.32 -516.862C1205.19 -528.515 1232.96 -524.116 1251.11 -505.966L1829.12 72.0348C1847.27 90.1854 1851.66 117.959 1840.01 140.83L1468.91 869.153C1457.26 892.024 1432.2 904.79 1406.85 900.775L599.498 772.903C574.146 768.887 554.262 749.004 550.247 723.651L422.375 -83.7018C418.359 -109.054 431.125 -134.109 453.996 -145.763Z" stroke="url(#paint35_linear_780_5926)" stroke-width="1.5"/>
<path opacity="0.373737" d="M452.851 -153.283L1185.95 -510.841C1209.03 -522.094 1236.72 -517.211 1254.55 -498.746L1821.15 87.9855C1838.98 106.45 1842.89 134.296 1830.84 156.96L1447.92 877.139C1435.87 899.803 1410.59 912.13 1385.31 907.673L582.053 766.036C556.774 761.579 537.24 741.351 533.668 715.932L420.151 -91.7831C416.579 -117.202 429.78 -142.03 452.851 -153.283Z" stroke="url(#paint36_linear_780_5926)" stroke-width="1.5"/>
<path opacity="0.383838" d="M451.875 -160.644L1189.51 -504.609C1212.77 -515.457 1240.38 -510.091 1257.88 -491.319L1812.95 103.923C1830.46 122.696 1833.89 150.606 1821.44 173.056L1426.86 884.9C1414.42 907.35 1388.93 919.234 1363.73 914.336L564.798 759.039C539.601 754.141 520.423 733.576 517.295 708.098L418.107 -99.7247C414.979 -125.202 428.611 -149.796 451.875 -160.644Z" stroke="url(#paint37_linear_780_5926)" stroke-width="1.5"/>
<path opacity="0.393939" d="M451.064 -167.839L1192.98 -498.161C1216.43 -508.601 1243.93 -502.755 1261.11 -483.679L1804.53 119.848C1821.7 138.924 1824.64 166.89 1811.81 189.119L1405.75 892.441C1392.91 914.671 1367.22 926.108 1342.11 920.772L547.735 751.921C522.627 746.584 503.812 725.687 501.128 700.159L416.238 -107.518C413.555 -133.046 427.615 -157.399 451.064 -167.839Z" stroke="url(#paint38_linear_780_5926)" stroke-width="1.5"/>
<path opacity="0.40404" d="M450.417 -174.871L1196.36 -491.505C1219.99 -501.534 1247.39 -495.209 1264.23 -475.836L1795.87 135.752C1812.71 155.125 1815.16 183.137 1801.94 205.14L1384.58 899.756C1371.36 921.759 1345.47 932.746 1320.46 926.972L530.868 744.68C505.857 738.906 487.409 717.683 485.171 692.112L414.544 -115.167C412.306 -140.738 426.789 -164.841 450.417 -174.871Z" stroke="url(#paint39_linear_780_5926)" stroke-width="1.5"/>
<path opacity="0.414141" d="M449.931 -181.728L1199.65 -484.635C1223.45 -494.251 1250.74 -487.448 1267.24 -467.784L1786.99 151.639C1803.49 171.302 1805.45 199.354 1791.85 221.122L1363.36 906.853C1349.76 928.621 1323.68 939.155 1298.78 932.945L514.198 737.327C489.292 731.118 471.217 709.577 469.426 683.97L413.021 -122.66C411.231 -148.266 426.132 -172.113 449.931 -181.728Z" stroke="url(#paint40_linear_780_5926)" stroke-width="1.5"/>
<path opacity="0.424242" d="M449.601 -188.415L1202.85 -477.559C1226.81 -486.758 1253.97 -479.48 1270.13 -459.531L1777.89 167.498C1794.04 187.446 1795.51 215.528 1781.53 237.055L1342.1 913.725C1328.12 935.253 1301.86 945.33 1277.07 938.686L497.726 729.862C472.932 723.218 455.236 701.365 453.892 675.732L411.666 -129.999C410.323 -155.632 425.638 -179.216 449.601 -188.415Z" stroke="url(#paint41_linear_780_5926)" stroke-width="1.5"/>
<path opacity="0.434343" d="M449.425 -194.928L1205.95 -470.279C1230.07 -479.058 1257.1 -471.307 1272.9 -451.08L1768.55 183.326C1784.36 203.553 1785.34 231.656 1770.98 252.936L1320.79 920.372C1306.44 941.652 1280.01 951.27 1255.34 944.195L481.455 722.286C456.78 715.211 439.468 693.052 438.572 667.399L410.476 -137.183C409.58 -162.836 425.304 -186.148 449.425 -194.928Z" stroke="url(#paint42_linear_780_5926)" stroke-width="1.5"/>
<path opacity="0.444444" d="M449.399 -201.262L1208.94 -462.794C1233.21 -471.151 1260.1 -462.93 1275.55 -442.43L1759 199.122C1774.44 219.622 1774.93 247.737 1760.21 268.764L1299.45 926.796C1284.73 947.823 1258.14 956.978 1233.59 949.473L465.386 714.608C440.839 707.103 423.916 684.646 423.468 658.981L409.448 -144.206C409 -169.871 425.129 -192.905 449.399 -201.262Z" stroke="url(#paint43_linear_780_5926)" stroke-width="1.5"/>
<path opacity="0.454545" d="M449.519 -207.416L1211.84 -455.108C1236.25 -463.04 1262.99 -454.35 1278.08 -433.584L1749.22 214.88C1764.3 235.647 1764.3 263.767 1749.22 284.533L1278.08 932.998C1262.99 953.764 1236.25 962.453 1211.83 954.521L449.519 706.83C425.107 698.898 408.579 676.149 408.579 650.48L408.579 -151.066C408.579 -176.735 425.107 -199.484 449.519 -207.416Z" stroke="url(#paint44_linear_780_5926)" stroke-width="1.5"/>
<path opacity="0.464646" d="M449.781 -213.39L1214.62 -447.224C1239.16 -454.729 1265.75 -445.574 1280.48 -424.548L1739.21 230.596C1753.93 251.623 1753.44 279.738 1738 300.238L1256.67 938.973C1241.23 959.473 1214.34 967.694 1190.07 959.337L433.856 698.954C409.586 690.597 393.457 667.562 393.905 641.898L407.863 -157.764C408.311 -183.428 425.234 -205.886 449.781 -213.39Z" stroke="url(#paint45_linear_780_5926)" stroke-width="1.5"/>
<path opacity="0.474747" d="M450.184 -219.183L1217.29 -439.147C1241.96 -446.222 1268.39 -436.604 1282.74 -415.324L1728.99 246.264C1743.34 267.545 1742.36 295.647 1726.56 315.874L1235.25 944.722C1219.44 964.95 1192.41 972.7 1168.29 963.921L418.4 690.982C394.28 682.203 378.555 658.891 379.451 633.238L407.302 -164.296C408.198 -189.949 425.51 -212.107 450.184 -219.183Z" stroke="url(#paint46_linear_780_5926)" stroke-width="1.5"/>
<path opacity="0.484848" d="M450.722 -224.787L1219.85 -430.874C1244.64 -437.517 1270.89 -427.44 1284.87 -405.913L1718.54 261.884C1732.52 283.412 1731.05 311.493 1714.9 331.441L1213.8 950.248C1197.65 970.197 1170.48 977.475 1146.52 968.276L403.151 682.923C379.187 673.724 363.872 650.141 365.215 624.508L406.888 -170.657C408.232 -196.291 425.928 -218.144 450.722 -224.787Z" stroke="url(#paint47_linear_780_5926)" stroke-width="1.5"/>
<path opacity="0.494949" d="M451.39 -230.206L1222.28 -422.411C1247.19 -428.621 1273.26 -418.087 1286.86 -396.319L1707.88 277.449C1721.48 299.217 1719.52 327.269 1703.02 346.932L1192.33 955.549C1175.83 975.212 1148.55 982.015 1124.75 972.399L388.108 674.777C364.308 665.161 349.407 641.314 351.197 615.708L406.618 -176.849C408.409 -202.455 426.484 -223.996 451.39 -230.206Z" stroke="url(#paint48_linear_780_5926)" stroke-width="1.5"/>
<path opacity="0.50505" d="M452.189 -235.431L1224.6 -413.756C1249.61 -419.53 1275.5 -408.543 1288.72 -386.54L1697 292.961C1710.22 314.963 1707.77 342.976 1690.93 362.349L1170.85 960.629C1154.01 980.002 1126.61 986.327 1102.99 976.298L373.275 666.554C349.647 656.524 335.164 632.421 337.401 606.85L406.492 -182.863C408.73 -208.434 427.178 -229.656 452.189 -235.431Z" stroke="url(#paint49_linear_780_5926)" stroke-width="1.5"/>
<path opacity="0.515152" d="M453.111 -240.465L1226.79 -404.916C1251.9 -410.253 1277.59 -398.815 1290.42 -376.586L1685.91 308.411C1698.74 330.641 1695.8 358.607 1678.63 377.682L1149.37 965.484C1132.19 984.56 1104.69 990.406 1081.24 979.966L358.652 658.251C335.203 647.811 321.143 623.458 323.826 597.93L406.504 -188.703C409.188 -214.231 428.003 -235.128 453.111 -240.465Z" stroke="url(#paint50_linear_780_5926)" stroke-width="1.5"/>
<path opacity="0.525253" d="M454.156 -245.307L1228.86 -395.894C1254.06 -400.792 1279.54 -388.908 1291.99 -366.457L1674.6 323.795C1687.04 346.245 1683.62 374.156 1666.11 392.928L1127.87 970.115C1110.37 988.888 1082.77 994.253 1059.5 983.405L344.241 649.873C320.977 639.025 307.345 614.431 310.473 588.954L406.653 -194.366C409.781 -219.844 428.958 -240.409 454.156 -245.307Z" stroke="url(#paint51_linear_780_5926)" stroke-width="1.5"/>
<path opacity="0.535354" d="M455.316 -249.952L1230.79 -386.689C1256.07 -391.146 1281.35 -378.819 1293.4 -356.155L1663.08 339.112C1675.13 361.777 1671.21 389.623 1653.38 408.087L1106.38 974.524C1088.55 992.988 1060.86 997.871 1037.79 986.619L330.041 641.428C306.97 630.175 293.769 605.347 297.341 579.928L406.931 -199.848C410.504 -225.267 430.037 -245.494 455.316 -249.952Z" stroke="url(#paint52_linear_780_5926)" stroke-width="1.5"/>
<path opacity="0.545455" d="M456.591 -254.4L1232.59 -377.307C1257.95 -381.323 1283 -368.556 1294.65 -345.686L1651.34 354.357C1663 377.228 1658.6 405.001 1640.45 423.152L1084.89 978.709C1066.74 996.859 1038.97 1001.26 1016.1 989.605L316.054 632.915C293.183 621.262 280.417 596.207 284.432 570.855L407.339 -205.149C411.354 -230.501 431.238 -250.385 456.591 -254.4Z" stroke="url(#paint53_linear_780_5926)" stroke-width="1.5"/>
<path opacity="0.555556" d="M457.975 -258.651L1234.26 -367.751C1259.68 -371.323 1284.51 -358.122 1295.76 -335.051L1639.4 369.525C1650.66 392.596 1645.77 420.289 1627.31 438.12L1063.41 982.671C1044.94 1000.5 1017.1 1004.42 994.434 992.365L302.28 624.34C279.616 612.29 267.289 587.016 271.747 561.737L407.871 -210.266C412.329 -235.545 432.556 -255.079 457.975 -258.651Z" stroke="url(#paint54_linear_780_5926)" stroke-width="1.5"/>
<path opacity="0.565657" d="M459.467 -262.699L1235.79 -358.019C1261.26 -361.147 1285.86 -347.514 1296.71 -324.251L1627.26 384.617C1638.1 407.881 1632.74 435.484 1613.97 452.99L1041.94 986.415C1023.16 1003.92 995.255 1007.35 972.804 994.903L288.721 615.71C266.271 603.265 254.387 577.78 259.285 552.583L408.526 -215.196C413.424 -240.393 433.989 -259.571 459.467 -262.699Z" stroke="url(#paint55_linear_780_5926)" stroke-width="1.5"/>
<path opacity="0.575758" d="M461.059 -266.548L1237.17 -348.121C1262.7 -350.804 1287.05 -336.744 1297.49 -313.294L1614.9 399.624C1625.34 423.073 1619.5 450.578 1600.42 467.754L1020.48 989.934C1001.41 1007.11 973.439 1010.05 951.21 997.215L275.376 607.022C253.146 594.188 241.708 568.499 247.045 543.391L409.297 -219.941C414.633 -245.049 435.531 -263.865 461.059 -266.548Z" stroke="url(#paint56_linear_780_5926)" stroke-width="1.5"/>
<path opacity="0.585859" d="M462.75 -270.191L1238.41 -338.052C1263.98 -340.289 1288.08 -325.807 1298.11 -302.179L1602.35 414.547C1612.37 438.176 1606.05 465.575 1586.68 482.415L999.043 993.237C979.671 1010.08 951.658 1012.53 929.656 999.308L262.246 598.287C240.243 585.067 229.256 559.183 235.03 534.172L410.182 -224.495C415.956 -249.505 437.179 -267.954 462.75 -270.191Z" stroke="url(#paint57_linear_780_5926)" stroke-width="1.5"/>
<path opacity="0.59596" d="M464.534 -273.631L1239.5 -327.822C1265.11 -329.613 1288.95 -314.712 1298.57 -290.912L1589.59 429.379C1599.2 453.179 1592.4 480.463 1572.74 496.963L977.627 996.318C957.964 1012.82 929.913 1014.78 908.145 1001.18L249.331 589.504C227.562 575.902 217.028 549.83 223.238 524.924L411.178 -228.86C417.387 -253.766 438.928 -271.841 464.534 -273.631Z" stroke="url(#paint58_linear_780_5926)" stroke-width="1.5"/>
<path opacity="0.606061" d="M466.411 -276.865L1240.45 -317.43C1266.08 -318.773 1289.66 -303.458 1298.86 -279.495L1576.63 444.12C1585.83 468.084 1578.55 495.245 1558.6 511.399L956.24 999.183C936.292 1015.34 908.21 1016.81 886.683 1002.83L236.633 580.681C215.105 566.7 205.028 540.448 211.672 515.654L412.281 -233.031C418.925 -257.825 440.778 -275.521 466.411 -276.865Z" stroke="url(#paint59_linear_780_5926)" stroke-width="1.5"/>
<path opacity="0.616162" d="M468.373 -279.892L1241.23 -306.881C1266.89 -307.777 1290.2 -292.052 1298.98 -267.932L1563.47 458.763C1572.25 482.884 1564.5 509.914 1544.28 525.717L934.881 1001.83C914.654 1017.63 886.551 1018.61 865.271 1004.26L224.149 571.817C202.869 557.463 193.252 531.04 200.327 506.365L413.486 -237.01C420.561 -261.684 442.72 -278.996 468.373 -279.892Z" stroke="url(#paint60_linear_780_5926)" stroke-width="1.5"/>
<path opacity="0.626263" d="M470.418 -282.709L1241.87 -296.175C1267.53 -296.623 1290.57 -280.494 1298.93 -256.224L1550.12 473.309C1558.48 497.579 1550.26 524.47 1529.76 539.918L913.557 1004.26C893.057 1019.71 864.942 1020.2 843.915 1005.48L211.883 562.922C190.856 548.199 181.702 521.611 189.206 497.064L414.791 -240.791C422.296 -265.338 444.753 -282.261 470.418 -282.709Z" stroke="url(#paint61_linear_780_5926)" stroke-width="1.5"/>
<path opacity="0.636364" d="M472.542 -285.317L1242.35 -285.317C1268.02 -285.317 1290.77 -268.788 1298.7 -244.376L1536.58 487.753C1544.51 512.165 1535.82 538.909 1515.06 553.996L892.271 1006.48C871.505 1021.56 843.385 1021.56 822.618 1006.48L199.832 553.996C179.066 538.909 170.377 512.165 178.309 487.753L416.192 -244.376C424.124 -268.788 446.873 -285.317 472.542 -285.317Z" stroke="url(#paint62_linear_780_5926)" stroke-width="1.5"/>
<path opacity="0.646465" d="M474.74 -287.716L1242.67 -274.312C1268.33 -273.864 1290.79 -256.941 1298.29 -232.394L1522.85 502.088C1530.35 526.635 1521.2 553.223 1500.17 567.946L871.026 1008.48C850 1023.2 821.884 1022.71 801.384 1007.26L187.999 545.042C167.499 529.594 159.277 502.703 167.634 478.433L417.684 -247.765C426.041 -272.035 449.076 -288.164 474.74 -287.716Z" stroke="url(#paint63_linear_780_5926)" stroke-width="1.5"/>
<path opacity="0.656566" d="M477.011 -289.903L1242.82 -263.161C1268.48 -262.265 1290.64 -244.953 1297.71 -220.278L1508.93 516.317C1516 540.991 1506.38 567.415 1485.1 581.769L849.829 1010.27C828.548 1024.62 800.446 1023.64 780.219 1007.84L176.382 536.067C156.155 520.264 148.404 493.233 157.183 469.113L419.266 -250.954C428.046 -275.075 451.358 -290.799 477.011 -289.903Z" stroke="url(#paint64_linear_780_5926)" stroke-width="1.5"/>
<path opacity="0.666667" d="M479.347 -291.882L1242.81 -251.87C1268.45 -250.527 1290.3 -232.83 1296.95 -208.036L1494.82 530.429C1501.46 555.223 1491.38 581.475 1469.85 595.455L828.678 1011.84C807.15 1025.82 779.069 1024.35 759.121 1008.2L164.981 527.07C145.032 510.916 137.754 483.754 146.953 459.791L420.931 -253.946C430.13 -277.91 453.713 -293.225 479.347 -291.882Z" stroke="url(#paint65_linear_780_5926)" stroke-width="1.5"/>
<path opacity="0.676768" d="M481.747 -293.644L1242.64 -240.437C1268.25 -238.647 1289.79 -220.572 1296 -195.666L1480.52 544.43C1486.73 569.336 1476.2 595.408 1454.43 609.01L807.581 1013.21C785.813 1026.81 757.762 1024.85 738.099 1008.35L153.796 518.061C134.133 501.562 127.33 474.277 136.946 450.478L422.678 -256.734C432.294 -280.534 456.14 -295.435 481.747 -293.644Z" stroke="url(#paint66_linear_780_5926)" stroke-width="1.5"/>
<path opacity="0.686869" d="M484.206 -295.195L1242.3 -228.87C1267.87 -226.633 1289.09 -208.185 1294.87 -183.174L1466.05 558.311C1471.83 583.321 1460.84 609.206 1438.84 622.426L786.542 1014.36C764.539 1027.58 736.526 1025.13 717.154 1008.29L142.828 509.04C123.456 492.2 117.13 464.801 127.16 441.173L424.502 -259.321C434.532 -282.949 458.635 -297.432 484.206 -295.195Z" stroke="url(#paint67_linear_780_5926)" stroke-width="1.5"/>
<path opacity="0.69697" d="M486.72 -296.532L1241.79 -217.172C1267.31 -214.489 1288.21 -195.673 1293.55 -170.565L1451.4 572.07C1456.74 597.177 1445.3 622.866 1423.07 635.7L765.561 1015.31C743.332 1028.15 715.366 1025.21 696.29 1008.03L132.076 500.011C113 482.836 107.154 455.33 117.594 431.881L426.399 -261.706C436.839 -285.156 461.192 -299.216 486.72 -296.532Z" stroke="url(#paint68_linear_780_5926)" stroke-width="1.5"/>
<path opacity="0.707071" d="M489.286 -297.652L1241.1 -205.34C1266.58 -202.212 1287.14 -183.034 1292.04 -157.837L1436.57 585.708C1441.47 610.905 1429.59 636.39 1407.14 648.835L744.645 1016.06C722.195 1028.5 694.285 1025.08 675.512 1007.57L121.539 490.983C102.766 473.477 97.4008 445.874 108.249 422.61L428.366 -263.883C439.214 -287.147 463.808 -300.78 489.286 -297.652Z" stroke="url(#paint69_linear_780_5926)" stroke-width="1.5"/>
<path opacity="0.717172" d="M491.897 -298.56L1240.24 -193.387C1265.66 -189.815 1285.89 -170.281 1290.35 -145.003L1421.57 599.216C1426.03 624.494 1413.7 649.768 1391.04 661.819L723.795 1016.6C701.131 1028.65 673.285 1024.74 654.82 1006.9L111.216 481.952C92.7515 464.121 87.8686 436.428 99.121 413.357L430.398 -265.86C441.65 -288.931 466.478 -302.133 491.897 -298.56Z" stroke="url(#paint70_linear_780_5926)" stroke-width="1.5"/>
<path opacity="0.727273" d="M494.553 -299.251L1239.21 -181.309C1264.56 -177.294 1284.44 -157.41 1288.46 -132.057L1406.4 612.596C1410.42 637.949 1397.65 663.004 1374.78 674.657L703.017 1016.94C680.146 1028.59 652.372 1024.19 634.222 1006.04L101.109 472.928C82.9584 454.777 78.5595 427.004 90.2128 404.133L432.492 -267.629C444.146 -290.5 469.201 -303.266 494.553 -299.251Z" stroke="url(#paint71_linear_780_5926)" stroke-width="1.5"/>
<path opacity="0.737374" d="M497.248 -299.727L1237.99 -169.113C1263.27 -164.656 1282.81 -144.428 1286.38 -119.01L1391.06 625.843C1394.63 651.261 1381.43 676.09 1358.36 687.342L682.312 1017.07C659.241 1028.33 631.549 1023.44 613.718 1004.98L91.215 463.91C73.384 445.446 69.4705 417.6 81.5212 394.936L434.645 -269.193C446.695 -291.857 471.969 -304.184 497.248 -299.727Z" stroke="url(#paint72_linear_780_5926)" stroke-width="1.5"/>
<path opacity="0.747475" d="M499.977 -299.984L1236.6 -156.8C1261.8 -151.902 1280.97 -131.336 1284.1 -105.859L1375.55 638.957C1378.68 664.434 1365.05 689.028 1341.79 699.876L661.684 1017.01C638.42 1027.86 610.817 1022.5 593.311 1003.72L81.5332 454.908C64.0272 436.135 60.6003 408.225 73.0447 385.775L436.85 -270.548C449.295 -292.998 474.78 -304.882 499.977 -299.984Z" stroke="url(#paint73_linear_780_5926)" stroke-width="1.5"/>
<path opacity="0.757576" d="M502.739 -300.03L1235.03 -144.378C1260.13 -139.042 1278.95 -118.144 1281.63 -92.6164L1359.89 651.928C1362.57 677.456 1348.51 701.808 1325.06 712.249L641.139 1016.75C617.689 1027.19 590.184 1021.34 573.008 1002.27L72.0666 445.917C54.8909 426.841 51.9516 398.876 64.7859 376.646L439.109 -271.7C451.943 -293.93 477.632 -305.367 502.739 -300.03Z" stroke="url(#paint74_linear_780_5926)" stroke-width="1.5"/>
<path opacity="0.767677" d="M505.528 -299.858L1233.27 -131.846C1258.28 -126.072 1276.73 -104.849 1278.96 -79.2783L1344.06 664.762C1346.3 690.333 1331.81 714.436 1308.19 724.466L620.676 1016.3C597.048 1026.33 569.649 1020 552.809 1000.63L62.8102 436.948C45.97 417.576 43.5192 389.563 56.7395 367.561L441.412 -272.642C454.633 -294.645 480.517 -305.632 505.528 -299.858Z" stroke="url(#paint75_linear_780_5926)" stroke-width="1.5"/>
<path opacity="0.777778" d="M508.34 -299.467L1231.33 -119.207C1256.23 -112.997 1274.31 -91.4559 1276.1 -65.8498L1328.07 677.454C1329.86 703.06 1314.96 726.907 1291.16 736.523L600.302 1015.65C576.502 1025.26 549.218 1018.46 532.718 998.799L53.7649 428.004C37.2654 408.341 35.3039 380.29 48.9062 358.522L443.759 -273.375C457.361 -295.143 483.434 -305.677 508.34 -299.467Z" stroke="url(#paint76_linear_780_5926)" stroke-width="1.5"/>
<path opacity="0.787879" d="M511.171 -298.861L1229.2 -106.466C1253.99 -99.8225 1271.69 -77.9693 1273.03 -52.3358L1311.94 690.001C1313.28 715.635 1297.96 739.218 1274 748.416L580.018 1014.81C556.054 1024.01 528.892 1016.73 512.739 996.784L44.9299 419.088C28.7761 399.14 27.3044 371.059 41.2846 349.531L446.145 -273.899C460.125 -295.427 486.377 -305.504 511.171 -298.861Z" stroke="url(#paint77_linear_780_5926)" stroke-width="1.5"/>
<path opacity="0.79798" d="M514.018 -298.042L1226.88 -93.6314C1251.56 -86.5561 1268.87 -64.3974 1269.76 -38.7444L1295.65 702.396C1296.54 728.049 1280.82 751.361 1256.7 760.14L559.828 1013.78C535.707 1022.56 508.677 1014.81 492.874 994.581L36.3041 410.199C20.5009 389.971 19.5195 361.869 33.8733 340.588L448.566 -274.219C462.92 -295.5 489.344 -305.117 514.018 -298.042Z" stroke="url(#paint78_linear_780_5926)" stroke-width="1.5"/>
<path opacity="0.808081" d="M516.877 -297.003L1224.38 -80.6985C1248.93 -73.1937 1265.85 -50.7362 1266.3 -25.0715L1279.21 714.645C1279.66 740.309 1263.53 763.344 1239.26 771.701L539.736 1012.57C515.466 1020.92 488.574 1012.7 473.127 992.201L27.8866 401.347C12.4388 380.847 11.9481 352.732 26.671 331.705L451.019 -274.327C465.742 -295.353 492.33 -304.508 516.877 -297.003Z" stroke="url(#paint79_linear_780_5926)" stroke-width="1.5"/>
<path opacity="0.818182" d="M519.742 -295.753L1221.68 -67.6778C1246.1 -59.7458 1262.62 -36.9964 1262.62 -11.3278L1262.62 726.738C1262.62 752.406 1246.1 775.156 1221.68 783.088L519.742 1011.16C495.33 1019.09 468.586 1010.4 453.498 989.639L19.6745 392.531C4.58684 371.765 4.58683 343.645 19.6745 322.879L453.498 -274.229C468.586 -294.995 495.33 -303.685 519.742 -295.753Z" stroke="url(#paint80_linear_780_5926)" stroke-width="1.5"/>
<path opacity="0.828283" d="M522.611 -294.285L1218.8 -54.5683C1243.07 -46.2114 1259.2 -23.177 1258.75 2.48772L1245.9 738.678C1245.45 764.342 1228.53 786.8 1203.98 794.305L499.852 1009.58C475.305 1017.08 448.717 1007.93 433.994 986.902L11.6687 383.759C-3.05424 362.732 -2.5635 334.617 12.8843 314.117L456.002 -273.92C471.45 -294.42 498.341 -302.642 522.611 -294.285Z" stroke="url(#paint81_linear_780_5926)" stroke-width="1.5"/>
<path opacity="0.838384" d="M525.483 -292.604L1215.72 -41.3771C1239.84 -32.5979 1255.57 -9.28549 1254.67 16.3675L1229.04 750.459C1228.14 776.112 1210.83 798.271 1186.15 805.346L480.071 1007.81C455.397 1014.89 428.973 1005.27 414.619 983.989L3.87015 375.029C-10.4836 353.749 -9.50218 325.646 6.30102 305.419L458.528 -273.405C474.331 -293.632 501.362 -301.383 525.483 -292.604Z" stroke="url(#paint82_linear_780_5926)" stroke-width="1.5"/>
<path opacity="0.848485" d="M528.347 -290.706L1212.45 -28.1027C1236.42 -18.9039 1251.73 4.67935 1250.39 30.3128L1212.04 762.084C1210.69 787.717 1193 809.571 1168.2 816.214L460.396 1005.87C435.602 1012.51 409.35 1002.44 395.37 980.909L-3.72784 366.352C-17.708 344.824 -16.2363 316.743 -0.0824696 296.795L461.068 -272.679C477.222 -292.627 504.383 -299.905 528.347 -290.706Z" stroke="url(#paint83_linear_780_5926)" stroke-width="1.5"/>
<path opacity="0.858586" d="M531.205 -288.597L1208.99 -14.7554C1232.79 -5.13973 1247.69 18.7072 1245.9 44.3133L1194.91 773.545C1193.11 799.151 1175.04 820.692 1150.13 826.901L440.836 1003.75C415.929 1009.96 389.857 999.425 376.255 977.657L-11.1224 357.724C-24.7247 335.955 -22.7632 307.904 -6.26366 288.241L463.622 -271.747C480.121 -291.41 507.406 -298.213 531.205 -288.597Z" stroke="url(#paint84_linear_780_5926)" stroke-width="1.5"/>
<path opacity="0.868687" d="M534.05 -286.274L1205.33 -1.33362C1228.95 8.69595 1243.44 32.7993 1241.2 58.3703L1177.64 784.844C1175.4 810.415 1156.96 831.637 1131.95 837.411L421.388 1001.46C396.377 1007.23 370.493 996.243 357.272 974.241L-18.3184 349.153C-31.5387 327.151 -29.0879 299.138 -12.2477 279.766L466.182 -270.605C483.023 -289.978 510.422 -296.303 534.05 -286.274Z" stroke="url(#paint85_linear_780_5926)" stroke-width="1.5"/>
<path opacity="0.878788" d="M536.881 -283.736L1201.47 12.1586C1224.92 22.599 1238.98 46.9515 1236.3 72.4795L1160.26 795.98C1157.57 821.508 1138.76 842.405 1113.65 847.742L402.06 998.994C376.953 1004.33 351.264 992.894 338.43 970.664L-25.3129 340.643C-38.1473 318.413 -35.2079 290.448 -18.0322 271.372L468.75 -269.255C485.926 -288.33 513.431 -294.177 536.881 -283.736Z" stroke="url(#paint86_linear_780_5926)" stroke-width="1.5"/>
<path opacity="0.888889" d="M539.692 -280.989L1197.42 25.7142C1220.68 36.5622 1234.32 61.1564 1231.19 86.6337L1142.74 806.946C1139.62 832.424 1120.44 852.989 1095.24 857.887L382.853 996.361C357.656 1001.26 332.17 989.375 319.726 966.925L-32.1109 332.194C-44.5553 309.744 -41.1284 281.833 -23.6224 263.061L471.319 -267.699C488.825 -286.472 516.428 -291.837 539.692 -280.989Z" stroke="url(#paint87_linear_780_5926)" stroke-width="1.5"/>
<path opacity="0.89899" d="M542.479 -278.031L1193.17 39.3321C1216.24 50.5845 1229.44 75.4127 1225.87 100.832L1125.11 817.745C1121.54 843.164 1102.01 863.391 1076.73 867.848L363.768 993.563C338.489 998.02 313.215 985.693 301.165 963.029L-38.7134 323.811C-50.7641 301.147 -46.8505 273.301 -29.0196 254.837L473.884 -265.936C491.715 -284.4 519.408 -289.283 542.479 -278.031Z" stroke="url(#paint88_linear_780_5926)" stroke-width="1.5"/>
<path opacity="0.909091" d="M545.241 -274.859L1188.72 53.0112C1211.59 64.6645 1224.36 89.7195 1220.34 115.072L1107.37 828.376C1103.35 853.729 1083.47 873.612 1058.12 877.628L344.811 990.604C319.459 994.619 294.404 981.853 282.751 958.982L-45.1193 315.502C-56.7726 292.631 -52.3737 264.857 -34.2232 246.707L476.446 -263.963C494.596 -282.113 522.37 -286.512 545.241 -274.859Z" stroke="url(#paint89_linear_780_5926)" stroke-width="1.5"/>
<path opacity="0.919192" d="M547.972 -271.483L1184.08 66.739C1206.74 78.7897 1219.07 104.064 1214.61 129.342L1089.51 838.829C1085.05 864.108 1064.82 883.642 1039.4 887.214L325.983 987.479C300.564 991.051 275.735 977.85 264.483 954.779L-51.3335 307.259C-62.5859 284.188 -57.703 256.495 -39.2385 238.665L478.997 -261.79C497.461 -279.62 525.307 -283.534 547.972 -271.483Z" stroke="url(#paint90_linear_780_5926)" stroke-width="1.5"/>
<path opacity="0.929293" d="M550.667 -267.897L1179.23 80.5205C1201.68 92.9649 1213.56 118.45 1208.67 143.647L1071.54 849.112C1066.64 874.309 1046.07 893.486 1020.6 896.615L307.285 984.198C281.807 987.326 257.213 973.694 246.365 950.43L-57.3572 299.095C-68.2052 275.831 -62.8397 248.228 -44.0669 230.722L481.534 -259.408C500.307 -276.914 528.217 -280.341 550.667 -267.897Z" stroke="url(#paint91_linear_780_5926)" stroke-width="1.5"/>
<path opacity="0.939394" d="M553.326 -264.103L1174.18 94.3491C1196.41 107.183 1207.85 132.872 1202.51 157.98L1053.46 859.219C1048.12 884.327 1027.23 903.143 1001.7 905.826L288.721 980.763C263.193 983.446 238.841 969.386 228.4 945.936L-63.1913 291.011C-73.6317 267.561 -67.7853 240.056 -48.7098 222.88L484.055 -256.823C503.13 -273.998 531.096 -276.938 553.326 -264.103Z" stroke="url(#paint92_linear_780_5926)" stroke-width="1.5"/>
<path opacity="0.949495" d="M555.941 -260.101L1168.94 108.224C1190.94 121.445 1201.93 147.329 1196.15 172.34L1035.28 869.152C1029.51 894.163 1008.28 912.611 982.714 914.849L270.293 977.177C244.722 979.415 220.619 964.932 210.589 941.304L-68.8389 283.012C-78.8685 259.384 -72.5429 231.985 -53.1705 215.145L486.554 -254.03C505.926 -270.871 533.939 -273.321 555.941 -260.101Z" stroke="url(#paint93_linear_780_5926)" stroke-width="1.5"/>
<path opacity="0.959596" d="M558.512 -255.899L1163.49 122.134C1185.26 135.736 1195.79 161.808 1189.58 186.714L1017 878.902C1010.79 903.808 989.251 921.884 963.645 923.674L252.004 973.437C226.398 975.227 202.551 960.326 192.935 936.527L-74.3011 275.094C-83.9167 251.294 -77.1139 224.01 -57.4506 207.51L489.029 -251.041C508.692 -267.54 536.744 -269.502 558.512 -255.899Z" stroke="url(#paint94_linear_780_5926)" stroke-width="1.5"/>
<path opacity="0.969697" d="M561.033 -251.491L1157.84 136.082C1179.37 150.063 1189.45 176.315 1182.8 201.109L998.625 888.476C991.981 913.27 970.128 930.966 944.495 932.31L233.855 969.553C208.221 970.896 184.638 955.581 175.439 931.617L-79.5807 267.267C-88.7796 243.304 -81.5016 216.142 -61.5533 199.988L491.476 -247.846C511.424 -263.999 539.505 -265.471 561.033 -251.491Z" stroke="url(#paint95_linear_780_5926)" stroke-width="1.5"/>
<path opacity="0.979798" d="M563.503 -246.885L1152 150.059C1173.28 164.413 1182.89 190.837 1175.82 215.511L980.157 897.864C973.082 922.539 950.923 939.851 925.271 940.747L215.851 965.52C190.198 966.416 166.886 950.691 158.107 926.571L-84.677 259.528C-93.4562 235.408 -85.7053 208.377 -65.4782 192.574L493.893 -244.454C514.12 -260.258 542.222 -261.239 563.503 -246.885Z" stroke="url(#paint96_linear_780_5926)" stroke-width="1.5"/>
<path opacity="0.989899" d="M565.916 -242.074L1145.95 164.069C1166.97 178.791 1176.13 205.379 1168.62 229.926L961.6 907.075C954.095 931.622 931.637 948.545 905.973 948.993L197.992 961.35C172.327 961.798 149.293 945.67 140.936 921.399L-89.5949 251.889C-97.9518 227.618 -89.7304 200.727 -69.2305 185.28L496.274 -240.859C516.774 -256.306 544.889 -256.797 565.916 -242.074Z" stroke="url(#paint97_linear_780_5926)" stroke-width="1.5"/>
<path d="M568.272 -237.065L1139.7 178.102C1160.47 193.19 1169.16 219.933 1161.22 244.346L942.958 916.101C935.026 940.513 912.276 957.042 886.608 957.042H180.283C154.614 957.042 131.865 940.513 123.933 916.101L-94.3337 244.346C-102.266 219.933 -93.5762 193.19 -72.8099 178.102L498.619 -237.065C519.385 -252.153 547.505 -252.153 568.272 -237.065Z" stroke="url(#paint98_linear_780_5926)" stroke-width="1.5"/>
</g>
</g>
<defs>
<linearGradient id="paint0_linear_780_5926" x1="1483.88" y1="592.428" x2="1347.8" y2="-375.82" gradientUnits="userSpaceOnUse">
<stop stop-color="#082045"/>
<stop offset="1" stop-color="#3474D3"/>
</linearGradient>
<linearGradient id="paint1_linear_780_5926" x1="1466.48" y1="595.68" x2="1347.53" y2="-373.025" gradientUnits="userSpaceOnUse">
<stop stop-color="#082045"/>
<stop offset="1" stop-color="#3474D3"/>
</linearGradient>
<linearGradient id="paint2_linear_780_5926" x1="1449.08" y1="598.785" x2="1347.25" y2="-370.073" gradientUnits="userSpaceOnUse">
<stop stop-color="#082045"/>
<stop offset="1" stop-color="#3474D3"/>
</linearGradient>
<linearGradient id="paint3_linear_780_5926" x1="1431.7" y1="601.744" x2="1346.95" y2="-366.967" gradientUnits="userSpaceOnUse">
<stop stop-color="#082045"/>
<stop offset="1" stop-color="#3474D3"/>
</linearGradient>
<linearGradient id="paint4_linear_780_5926" x1="1414.34" y1="604.555" x2="1346.64" y2="-363.707" gradientUnits="userSpaceOnUse">
<stop stop-color="#082045"/>
<stop offset="1" stop-color="#3474D3"/>
</linearGradient>
<linearGradient id="paint5_linear_780_5926" x1="1397" y1="607.216" x2="1346.3" y2="-360.298" gradientUnits="userSpaceOnUse">
<stop stop-color="#082045"/>
<stop offset="1" stop-color="#3474D3"/>
</linearGradient>
<linearGradient id="paint6_linear_780_5926" x1="1379.68" y1="609.731" x2="1345.93" y2="-356.738" gradientUnits="userSpaceOnUse">
<stop stop-color="#082045"/>
<stop offset="1" stop-color="#3474D3"/>
</linearGradient>
<linearGradient id="paint7_linear_780_5926" x1="1362.39" y1="612.105" x2="1345.54" y2="-353.022" gradientUnits="userSpaceOnUse">
<stop stop-color="#082045"/>
<stop offset="1" stop-color="#3474D3"/>
</linearGradient>
<linearGradient id="paint8_linear_780_5926" x1="1345.12" y1="614.331" x2="1345.12" y2="-349.159" gradientUnits="userSpaceOnUse">
<stop stop-color="#082045"/>
<stop offset="1" stop-color="#3474D3"/>
</linearGradient>
<linearGradient id="paint9_linear_780_5926" x1="1327.88" y1="616.411" x2="1344.67" y2="-345.148" gradientUnits="userSpaceOnUse">
<stop stop-color="#082045"/>
<stop offset="1" stop-color="#3474D3"/>
</linearGradient>
<linearGradient id="paint10_linear_780_5926" x1="1310.68" y1="618.352" x2="1344.18" y2="-340.985" gradientUnits="userSpaceOnUse">
<stop stop-color="#082045"/>
<stop offset="1" stop-color="#3474D3"/>
</linearGradient>
<linearGradient id="paint11_linear_780_5926" x1="1293.51" y1="620.146" x2="1343.66" y2="-336.678" gradientUnits="userSpaceOnUse">
<stop stop-color="#082045"/>
<stop offset="1" stop-color="#3474D3"/>
</linearGradient>
<linearGradient id="paint12_linear_780_5926" x1="1276.38" y1="621.803" x2="1343.09" y2="-332.22" gradientUnits="userSpaceOnUse">
<stop stop-color="#082045"/>
<stop offset="1" stop-color="#3474D3"/>
</linearGradient>
<linearGradient id="paint13_linear_780_5926" x1="1259.29" y1="623.318" x2="1342.49" y2="-327.618" gradientUnits="userSpaceOnUse">
<stop stop-color="#082045"/>
<stop offset="1" stop-color="#3474D3"/>
</linearGradient>
<linearGradient id="paint14_linear_780_5926" x1="1242.24" y1="624.691" x2="1341.83" y2="-322.873" gradientUnits="userSpaceOnUse">
<stop stop-color="#082045"/>
<stop offset="1" stop-color="#3474D3"/>
</linearGradient>
<linearGradient id="paint15_linear_780_5926" x1="1225.24" y1="625.928" x2="1341.13" y2="-317.983" gradientUnits="userSpaceOnUse">
<stop stop-color="#082045"/>
<stop offset="1" stop-color="#3474D3"/>
</linearGradient>
<linearGradient id="paint16_linear_780_5926" x1="1208.28" y1="627.028" x2="1340.38" y2="-312.95" gradientUnits="userSpaceOnUse">
<stop stop-color="#082045"/>
<stop offset="1" stop-color="#3474D3"/>
</linearGradient>
<linearGradient id="paint17_linear_780_5926" x1="1191.37" y1="627.991" x2="1339.58" y2="-307.776" gradientUnits="userSpaceOnUse">
<stop stop-color="#082045"/>
<stop offset="1" stop-color="#3474D3"/>
</linearGradient>
<linearGradient id="paint18_linear_780_5926" x1="1174.52" y1="628.819" x2="1338.73" y2="-302.462" gradientUnits="userSpaceOnUse">
<stop stop-color="#082045"/>
<stop offset="1" stop-color="#3474D3"/>
</linearGradient>
<linearGradient id="paint19_linear_780_5926" x1="1157.71" y1="629.508" x2="1337.81" y2="-297.013" gradientUnits="userSpaceOnUse">
<stop stop-color="#082045"/>
<stop offset="1" stop-color="#3474D3"/>
</linearGradient>
<linearGradient id="paint20_linear_780_5926" x1="1140.97" y1="630.072" x2="1336.84" y2="-291.42" gradientUnits="userSpaceOnUse">
<stop stop-color="#082045"/>
<stop offset="1" stop-color="#3474D3"/>
</linearGradient>
<linearGradient id="paint21_linear_780_5926" x1="1124.28" y1="630.498" x2="1335.8" y2="-285.696" gradientUnits="userSpaceOnUse">
<stop stop-color="#082045"/>
<stop offset="1" stop-color="#3474D3"/>
</linearGradient>
<linearGradient id="paint22_linear_780_5926" x1="1107.65" y1="630.798" x2="1334.7" y2="-279.834" gradientUnits="userSpaceOnUse">
<stop stop-color="#082045"/>
<stop offset="1" stop-color="#3474D3"/>
</linearGradient>
<linearGradient id="paint23_linear_780_5926" x1="1091.09" y1="630.969" x2="1333.54" y2="-273.839" gradientUnits="userSpaceOnUse">
<stop stop-color="#082045"/>
<stop offset="1" stop-color="#3474D3"/>
</linearGradient>
<linearGradient id="paint24_linear_780_5926" x1="1074.6" y1="631.01" x2="1332.3" y2="-267.714" gradientUnits="userSpaceOnUse">
<stop stop-color="#082045"/>
<stop offset="1" stop-color="#3474D3"/>
</linearGradient>
<linearGradient id="paint25_linear_780_5926" x1="1058.16" y1="630.924" x2="1330.99" y2="-261.459" gradientUnits="userSpaceOnUse">
<stop stop-color="#082045"/>
<stop offset="1" stop-color="#3474D3"/>
</linearGradient>
<linearGradient id="paint26_linear_780_5926" x1="1041.8" y1="630.717" x2="1329.61" y2="-255.071" gradientUnits="userSpaceOnUse">
<stop stop-color="#082045"/>
<stop offset="1" stop-color="#3474D3"/>
</linearGradient>
<linearGradient id="paint27_linear_780_5926" x1="1025.52" y1="630.386" x2="1328.16" y2="-248.558" gradientUnits="userSpaceOnUse">
<stop stop-color="#082045"/>
<stop offset="1" stop-color="#3474D3"/>
</linearGradient>
<linearGradient id="paint28_linear_780_5926" x1="1009.3" y1="629.934" x2="1326.63" y2="-241.917" gradientUnits="userSpaceOnUse">
<stop stop-color="#082045"/>
<stop offset="1" stop-color="#3474D3"/>
</linearGradient>
<linearGradient id="paint29_linear_780_5926" x1="993.161" y1="629.358" x2="1325.02" y2="-235.156" gradientUnits="userSpaceOnUse">
<stop stop-color="#082045"/>
<stop offset="1" stop-color="#3474D3"/>
</linearGradient>
<linearGradient id="paint30_linear_780_5926" x1="977.1" y1="628.668" x2="1323.32" y2="-228.269" gradientUnits="userSpaceOnUse">
<stop stop-color="#082045"/>
<stop offset="1" stop-color="#3474D3"/>
</linearGradient>
<linearGradient id="paint31_linear_780_5926" x1="961.119" y1="627.857" x2="1321.55" y2="-221.265" gradientUnits="userSpaceOnUse">
<stop stop-color="#082045"/>
<stop offset="1" stop-color="#3474D3"/>
</linearGradient>
<linearGradient id="paint32_linear_780_5926" x1="945.218" y1="626.934" x2="1319.69" y2="-214.138" gradientUnits="userSpaceOnUse">
<stop stop-color="#082045"/>
<stop offset="1" stop-color="#3474D3"/>
</linearGradient>
<linearGradient id="paint33_linear_780_5926" x1="929.401" y1="625.895" x2="1317.74" y2="-206.897" gradientUnits="userSpaceOnUse">
<stop stop-color="#082045"/>
<stop offset="1" stop-color="#3474D3"/>
</linearGradient>
<linearGradient id="paint34_linear_780_5926" x1="913.669" y1="624.747" x2="1315.7" y2="-199.536" gradientUnits="userSpaceOnUse">
<stop stop-color="#082045"/>
<stop offset="1" stop-color="#3474D3"/>
</linearGradient>
<linearGradient id="paint35_linear_780_5926" x1="898.024" y1="623.486" x2="1313.57" y2="-192.065" gradientUnits="userSpaceOnUse">
<stop stop-color="#082045"/>
<stop offset="1" stop-color="#3474D3"/>
</linearGradient>
<linearGradient id="paint36_linear_780_5926" x1="882.469" y1="622.12" x2="1311.35" y2="-184.48" gradientUnits="userSpaceOnUse">
<stop stop-color="#082045"/>
<stop offset="1" stop-color="#3474D3"/>
</linearGradient>
<linearGradient id="paint37_linear_780_5926" x1="867.005" y1="620.644" x2="1309.03" y2="-176.787" gradientUnits="userSpaceOnUse">
<stop stop-color="#082045"/>
<stop offset="1" stop-color="#3474D3"/>
</linearGradient>
<linearGradient id="paint38_linear_780_5926" x1="851.632" y1="619.066" x2="1306.61" y2="-168.985" gradientUnits="userSpaceOnUse">
<stop stop-color="#082045"/>
<stop offset="1" stop-color="#3474D3"/>
</linearGradient>
<linearGradient id="paint39_linear_780_5926" x1="836.353" y1="617.381" x2="1304.1" y2="-161.08" gradientUnits="userSpaceOnUse">
<stop stop-color="#082045"/>
<stop offset="1" stop-color="#3474D3"/>
</linearGradient>
<linearGradient id="paint40_linear_780_5926" x1="821.17" y1="615.599" x2="1301.49" y2="-153.066" gradientUnits="userSpaceOnUse">
<stop stop-color="#082045"/>
<stop offset="1" stop-color="#3474D3"/>
</linearGradient>
<linearGradient id="paint41_linear_780_5926" x1="806.085" y1="613.718" x2="1298.77" y2="-144.952" gradientUnits="userSpaceOnUse">
<stop stop-color="#082045"/>
<stop offset="1" stop-color="#3474D3"/>
</linearGradient>
<linearGradient id="paint42_linear_780_5926" x1="791.098" y1="611.738" x2="1295.95" y2="-136.738" gradientUnits="userSpaceOnUse">
<stop stop-color="#082045"/>
<stop offset="1" stop-color="#3474D3"/>
</linearGradient>
<linearGradient id="paint43_linear_780_5926" x1="776.213" y1="609.664" x2="1293.03" y2="-128.425" gradientUnits="userSpaceOnUse">
<stop stop-color="#082045"/>
<stop offset="1" stop-color="#3474D3"/>
</linearGradient>
<linearGradient id="paint44_linear_780_5926" x1="761.429" y1="607.499" x2="1290" y2="-120.015" gradientUnits="userSpaceOnUse">
<stop stop-color="#082045"/>
<stop offset="1" stop-color="#3474D3"/>
</linearGradient>
<linearGradient id="paint45_linear_780_5926" x1="746.747" y1="605.241" x2="1286.86" y2="-111.513" gradientUnits="userSpaceOnUse">
<stop stop-color="#082045"/>
<stop offset="1" stop-color="#3474D3"/>
</linearGradient>
<linearGradient id="paint46_linear_780_5926" x1="732.172" y1="602.892" x2="1283.61" y2="-102.921" gradientUnits="userSpaceOnUse">
<stop stop-color="#082045"/>
<stop offset="1" stop-color="#3474D3"/>
</linearGradient>
<linearGradient id="paint47_linear_780_5926" x1="717.703" y1="600.457" x2="1280.25" y2="-94.2374" gradientUnits="userSpaceOnUse">
<stop stop-color="#082045"/>
<stop offset="1" stop-color="#3474D3"/>
</linearGradient>
<linearGradient id="paint48_linear_780_5926" x1="703.339" y1="597.935" x2="1276.78" y2="-85.4684" gradientUnits="userSpaceOnUse">
<stop stop-color="#082045"/>
<stop offset="1" stop-color="#3474D3"/>
</linearGradient>
<linearGradient id="paint49_linear_780_5926" x1="689.086" y1="595.335" x2="1273.2" y2="-76.61" gradientUnits="userSpaceOnUse">
<stop stop-color="#082045"/>
<stop offset="1" stop-color="#3474D3"/>
</linearGradient>
<linearGradient id="paint50_linear_780_5926" x1="674.942" y1="592.653" x2="1269.5" y2="-67.67" gradientUnits="userSpaceOnUse">
<stop stop-color="#082045"/>
<stop offset="1" stop-color="#3474D3"/>
</linearGradient>
<linearGradient id="paint51_linear_780_5926" x1="660.91" y1="589.89" x2="1265.68" y2="-58.6506" gradientUnits="userSpaceOnUse">
<stop stop-color="#082045"/>
<stop offset="1" stop-color="#3474D3"/>
</linearGradient>
<linearGradient id="paint52_linear_780_5926" x1="646.99" y1="587.053" x2="1261.75" y2="-49.551" gradientUnits="userSpaceOnUse">
<stop stop-color="#082045"/>
<stop offset="1" stop-color="#3474D3"/>
</linearGradient>
<linearGradient id="paint53_linear_780_5926" x1="633.184" y1="584.14" x2="1257.7" y2="-40.3762" gradientUnits="userSpaceOnUse">
<stop stop-color="#082045"/>
<stop offset="1" stop-color="#3474D3"/>
</linearGradient>
<linearGradient id="paint54_linear_780_5926" x1="619.492" y1="581.154" x2="1253.53" y2="-31.128" gradientUnits="userSpaceOnUse">
<stop stop-color="#082045"/>
<stop offset="1" stop-color="#3474D3"/>
</linearGradient>
<linearGradient id="paint55_linear_780_5926" x1="605.917" y1="578.101" x2="1249.24" y2="-21.8056" gradientUnits="userSpaceOnUse">
<stop stop-color="#082045"/>
<stop offset="1" stop-color="#3474D3"/>
</linearGradient>
<linearGradient id="paint56_linear_780_5926" x1="592.458" y1="574.977" x2="1244.82" y2="-12.4168" gradientUnits="userSpaceOnUse">
<stop stop-color="#082045"/>
<stop offset="1" stop-color="#3474D3"/>
</linearGradient>
<linearGradient id="paint57_linear_780_5926" x1="579.117" y1="571.791" x2="1240.29" y2="-2.95766" gradientUnits="userSpaceOnUse">
<stop stop-color="#082045"/>
<stop offset="1" stop-color="#3474D3"/>
</linearGradient>
<linearGradient id="paint58_linear_780_5926" x1="565.893" y1="568.539" x2="1235.63" y2="6.56398" gradientUnits="userSpaceOnUse">
<stop stop-color="#082045"/>
<stop offset="1" stop-color="#3474D3"/>
</linearGradient>
<linearGradient id="paint59_linear_780_5926" x1="552.791" y1="565.227" x2="1230.85" y2="16.1494" gradientUnits="userSpaceOnUse">
<stop stop-color="#082045"/>
<stop offset="1" stop-color="#3474D3"/>
</linearGradient>
<linearGradient id="paint60_linear_780_5926" x1="539.807" y1="561.856" x2="1225.94" y2="25.7936" gradientUnits="userSpaceOnUse">
<stop stop-color="#082045"/>
<stop offset="1" stop-color="#3474D3"/>
</linearGradient>
<linearGradient id="paint61_linear_780_5926" x1="526.946" y1="558.43" x2="1220.9" y2="35.498" gradientUnits="userSpaceOnUse">
<stop stop-color="#082045"/>
<stop offset="1" stop-color="#3474D3"/>
</linearGradient>
<linearGradient id="paint62_linear_780_5926" x1="514.205" y1="554.95" x2="1215.74" y2="45.2579" gradientUnits="userSpaceOnUse">
<stop stop-color="#082045"/>
<stop offset="1" stop-color="#3474D3"/>
</linearGradient>
<linearGradient id="paint63_linear_780_5926" x1="501.587" y1="551.417" x2="1210.45" y2="55.0685" gradientUnits="userSpaceOnUse">
<stop stop-color="#082045"/>
<stop offset="1" stop-color="#3474D3"/>
</linearGradient>
<linearGradient id="paint64_linear_780_5926" x1="489.094" y1="547.835" x2="1205.03" y2="64.9313" gradientUnits="userSpaceOnUse">
<stop stop-color="#082045"/>
<stop offset="1" stop-color="#3474D3"/>
</linearGradient>
<linearGradient id="paint65_linear_780_5926" x1="476.723" y1="544.202" x2="1199.48" y2="74.8389" gradientUnits="userSpaceOnUse">
<stop stop-color="#082045"/>
<stop offset="1" stop-color="#3474D3"/>
</linearGradient>
<linearGradient id="paint66_linear_780_5926" x1="464.477" y1="540.528" x2="1193.8" y2="84.7956" gradientUnits="userSpaceOnUse">
<stop stop-color="#082045"/>
<stop offset="1" stop-color="#3474D3"/>
</linearGradient>
<linearGradient id="paint67_linear_780_5926" x1="452.357" y1="536.81" x2="1187.99" y2="94.7941" gradientUnits="userSpaceOnUse">
<stop stop-color="#082045"/>
<stop offset="1" stop-color="#3474D3"/>
</linearGradient>
<linearGradient id="paint68_linear_780_5926" x1="440.362" y1="533.051" x2="1182.06" y2="104.833" gradientUnits="userSpaceOnUse">
<stop stop-color="#082045"/>
<stop offset="1" stop-color="#3474D3"/>
</linearGradient>
<linearGradient id="paint69_linear_780_5926" x1="428.493" y1="529.257" x2="1175.99" y2="114.914" gradientUnits="userSpaceOnUse">
<stop stop-color="#082045"/>
<stop offset="1" stop-color="#3474D3"/>
</linearGradient>
<linearGradient id="paint70_linear_780_5926" x1="416.749" y1="525.423" x2="1169.79" y2="125.027" gradientUnits="userSpaceOnUse">
<stop stop-color="#082045"/>
<stop offset="1" stop-color="#3474D3"/>
</linearGradient>
<linearGradient id="paint71_linear_780_5926" x1="405.134" y1="521.559" x2="1163.45" y2="135.176" gradientUnits="userSpaceOnUse">
<stop stop-color="#082045"/>
<stop offset="1" stop-color="#3474D3"/>
</linearGradient>
<linearGradient id="paint72_linear_780_5926" x1="393.645" y1="517.663" x2="1156.99" y2="145.355" gradientUnits="userSpaceOnUse">
<stop stop-color="#082045"/>
<stop offset="1" stop-color="#3474D3"/>
</linearGradient>
<linearGradient id="paint73_linear_780_5926" x1="382.282" y1="513.741" x2="1150.39" y2="155.566" gradientUnits="userSpaceOnUse">
<stop stop-color="#082045"/>
<stop offset="1" stop-color="#3474D3"/>
</linearGradient>
<linearGradient id="paint74_linear_780_5926" x1="371.049" y1="509.787" x2="1143.66" y2="165.798" gradientUnits="userSpaceOnUse">
<stop stop-color="#082045"/>
<stop offset="1" stop-color="#3474D3"/>
</linearGradient>
<linearGradient id="paint75_linear_780_5926" x1="359.943" y1="505.813" x2="1136.8" y2="176.057" gradientUnits="userSpaceOnUse">
<stop stop-color="#082045"/>
<stop offset="1" stop-color="#3474D3"/>
</linearGradient>
<linearGradient id="paint76_linear_780_5926" x1="348.965" y1="501.818" x2="1129.8" y2="186.339" gradientUnits="userSpaceOnUse">
<stop stop-color="#082045"/>
<stop offset="1" stop-color="#3474D3"/>
</linearGradient>
<linearGradient id="paint77_linear_780_5926" x1="338.114" y1="497.804" x2="1122.67" y2="196.64" gradientUnits="userSpaceOnUse">
<stop stop-color="#082045"/>
<stop offset="1" stop-color="#3474D3"/>
</linearGradient>
<linearGradient id="paint78_linear_780_5926" x1="327.392" y1="493.77" x2="1115.41" y2="206.954" gradientUnits="userSpaceOnUse">
<stop stop-color="#082045"/>
<stop offset="1" stop-color="#3474D3"/>
</linearGradient>
<linearGradient id="paint79_linear_780_5926" x1="316.799" y1="489.724" x2="1108.02" y2="217.286" gradientUnits="userSpaceOnUse">
<stop stop-color="#082045"/>
<stop offset="1" stop-color="#3474D3"/>
</linearGradient>
<linearGradient id="paint80_linear_780_5926" x1="306.332" y1="485.664" x2="1100.49" y2="227.627" gradientUnits="userSpaceOnUse">
<stop stop-color="#082045"/>
<stop offset="1" stop-color="#3474D3"/>
</linearGradient>
<linearGradient id="paint81_linear_780_5926" x1="295.993" y1="481.595" x2="1092.82" y2="237.979" gradientUnits="userSpaceOnUse">
<stop stop-color="#082045"/>
<stop offset="1" stop-color="#3474D3"/>
</linearGradient>
<linearGradient id="paint82_linear_780_5926" x1="285.785" y1="477.516" x2="1085.03" y2="248.336" gradientUnits="userSpaceOnUse">
<stop stop-color="#082045"/>
<stop offset="1" stop-color="#3474D3"/>
</linearGradient>
<linearGradient id="paint83_linear_780_5926" x1="275.702" y1="473.435" x2="1077.1" y2="258.7" gradientUnits="userSpaceOnUse">
<stop stop-color="#082045"/>
<stop offset="1" stop-color="#3474D3"/>
</linearGradient>
<linearGradient id="paint84_linear_780_5926" x1="265.749" y1="469.348" x2="1069.04" y2="269.064" gradientUnits="userSpaceOnUse">
<stop stop-color="#082045"/>
<stop offset="1" stop-color="#3474D3"/>
</linearGradient>
<linearGradient id="paint85_linear_780_5926" x1="255.92" y1="465.262" x2="1060.85" y2="279.429" gradientUnits="userSpaceOnUse">
<stop stop-color="#082045"/>
<stop offset="1" stop-color="#3474D3"/>
</linearGradient>
<linearGradient id="paint86_linear_780_5926" x1="246.221" y1="461.178" x2="1052.53" y2="289.793" gradientUnits="userSpaceOnUse">
<stop stop-color="#082045"/>
<stop offset="1" stop-color="#3474D3"/>
</linearGradient>
<linearGradient id="paint87_linear_780_5926" x1="236.648" y1="457.097" x2="1044.07" y2="300.15" gradientUnits="userSpaceOnUse">
<stop stop-color="#082045"/>
<stop offset="1" stop-color="#3474D3"/>
</linearGradient>
<linearGradient id="paint88_linear_780_5926" x1="227.201" y1="453.022" x2="1035.48" y2="310.5" gradientUnits="userSpaceOnUse">
<stop stop-color="#082045"/>
<stop offset="1" stop-color="#3474D3"/>
</linearGradient>
<linearGradient id="paint89_linear_780_5926" x1="217.882" y1="448.959" x2="1026.77" y2="320.844" gradientUnits="userSpaceOnUse">
<stop stop-color="#082045"/>
<stop offset="1" stop-color="#3474D3"/>
</linearGradient>
<linearGradient id="paint90_linear_780_5926" x1="208.687" y1="444.9" x2="1017.92" y2="331.171" gradientUnits="userSpaceOnUse">
<stop stop-color="#082045"/>
<stop offset="1" stop-color="#3474D3"/>
</linearGradient>
<linearGradient id="paint91_linear_780_5926" x1="199.618" y1="440.858" x2="1008.94" y2="341.486" gradientUnits="userSpaceOnUse">
<stop stop-color="#082045"/>
<stop offset="1" stop-color="#3474D3"/>
</linearGradient>
<linearGradient id="paint92_linear_780_5926" x1="190.673" y1="436.83" x2="999.83" y2="351.784" gradientUnits="userSpaceOnUse">
<stop stop-color="#082045"/>
<stop offset="1" stop-color="#3474D3"/>
</linearGradient>
<linearGradient id="paint93_linear_780_5926" x1="181.852" y1="432.823" x2="990.592" y2="362.067" gradientUnits="userSpaceOnUse">
<stop stop-color="#082045"/>
<stop offset="1" stop-color="#3474D3"/>
</linearGradient>
<linearGradient id="paint94_linear_780_5926" x1="173.155" y1="428.83" x2="981.227" y2="372.324" gradientUnits="userSpaceOnUse">
<stop stop-color="#082045"/>
<stop offset="1" stop-color="#3474D3"/>
</linearGradient>
<linearGradient id="paint95_linear_780_5926" x1="164.579" y1="424.862" x2="971.732" y2="382.561" gradientUnits="userSpaceOnUse">
<stop stop-color="#082045"/>
<stop offset="1" stop-color="#3474D3"/>
</linearGradient>
<linearGradient id="paint96_linear_780_5926" x1="156.128" y1="420.913" x2="962.113" y2="392.767" gradientUnits="userSpaceOnUse">
<stop stop-color="#082045"/>
<stop offset="1" stop-color="#3474D3"/>
</linearGradient>
<linearGradient id="paint97_linear_780_5926" x1="147.798" y1="416.994" x2="952.367" y2="402.95" gradientUnits="userSpaceOnUse">
<stop stop-color="#082045"/>
<stop offset="1" stop-color="#3474D3"/>
</linearGradient>
<linearGradient id="paint98_linear_780_5926" x1="139.59" y1="413.103" x2="942.498" y2="413.103" gradientUnits="userSpaceOnUse">
<stop stop-color="#082045"/>
<stop offset="1" stop-color="#3474D3"/>
</linearGradient>
</defs>
</svg>
